{
  "accessors": [
    {
      "bufferView": 2,
      "componentType": 5126,
      "count": 3103,
      "max": [
        14.437800407409668,
        14.421600341796875,
        -0.8083999752998352
      ],
      "min": [
        -14.437800407409668,
        -14.421600341796875,
        -67.68399810791016
      ],
      "type": "VEC3"
    },
    {
      "bufferView": 2,
      "byteOffset": 37236,
      "componentType": 5126,
      "count": 3103,
      "max": [
        1.0,
        1.0,
        1.0
      ],
      "min": [
        -1.0,
        -1.0,
        -1.0
      ],
      "type": "VEC3"
    },
    {
      "bufferView": 1,
      "componentType": 5126,
      "count": 3103,
      "max": [
        1.0226999521255493,
        1.0
      ],
      "min": [
        0.0013000000035390258,
        0.0
      ],
      "type": "VEC2"
    },
    {
      "bufferView": 0,
      "componentType": 5125,
      "count": 13494,
      "type": "SCALAR"
    },
    {
      "bufferView": 2,
      "byteOffset": 74472,
      "componentType": 5126,
      "count": 3310,
      "max": [
        14.892800331115723,
        15.385299682617188,
        -2.877000093460083
      ],
      "min": [
        -14.125200271606445,
        -16.13949966430664,
        -78.30130004882813
      ],
      "type": "VEC3"
    },
    {
      "bufferView": 2,
      "byteOffset": 114192,
      "componentType": 5126,
      "count": 3310,
      "max": [
        1.0,
        0.9999490976333618,
        1.0
      ],
      "min": [
        -1.0,
        -1.0,
        -1.0
      ],
      "type": "VEC3"
    },
    {
      "bufferView": 1,
      "byteOffset": 24824,
      "componentType": 5126,
      "count": 3310,
      "max": [
        1.0226999521255493,
        1.0
      ],
      "min": [
        0.0,
        0.0
      ],
      "type": "VEC2"
    },
    {
      "bufferView": 0,
      "byteOffset": 53976,
      "componentType": 5125,
      "count": 13854,
      "type": "SCALAR"
    },
    {
      "bufferView": 2,
      "byteOffset": 153912,
      "componentType": 5126,
      "count": 1969,
      "max": [
        14.437800407409668,
        14.421600341796875,
        -0.2362000048160553
      ],
      "min": [
        -14.437800407409668,
        -14.421600341796875,
        -10.0
      ],
      "type": "VEC3"
    },
    {
      "bufferView": 2,
      "byteOffset": 177540,
      "componentType": 5126,
      "count": 1969,
      "max": [
        1.0,
        0.9999991655349731,
        0.9994354248046875
      ],
      "min": [
        -1.0,
        -0.9999991655349731,
        0.0
      ],
      "type": "VEC3"
    },
    {
      "bufferView": 1,
      "byteOffset": 51304,
      "componentType": 5126,
      "count": 1969,
      "max": [
        1.0,
        1.0
      ],
      "min": [
        0.15710000693798065,
        0.0
      ],
      "type": "VEC2"
    },
    {
      "bufferView": 0,
      "byteOffset": 109392,
      "componentType": 5125,
      "count": 9696,
      "type": "SCALAR"
    },
    {
      "bufferView": 2,
      "byteOffset": 201168,
      "componentType": 5126,
      "count": 2518,
      "max": [
        15.298600196838379,
        15.32349967956543,
        -3.2867000102996826
      ],
      "min": [
        -15.298600196838379,
        -16.03890037536621,
        -92.60700225830078
      ],
      "type": "VEC3"
    },
    {
      "bufferView": 2,
      "byteOffset": 231384,
      "componentType": 5126,
      "count": 2518,
      "max": [
        1.0,
        0.9999958276748657,
        0.9990358352661133
      ],
      "min": [
        -1.0,
        -0.9949061274528503,
        -1.0
      ],
      "type": "VEC3"
    },
    {
      "bufferView": 1,
      "byteOffset": 67056,
      "componentType": 5126,
      "count": 2518,
      "max": [
        0.7379000186920166,
        1.0
      ],
      "min": [
        0.0,
        0.0
      ],
      "type": "VEC2"
    },
    {
      "bufferView": 0,
      "byteOffset": 148176,
      "componentType": 5125,
      "count": 11340,
      "type": "SCALAR"
    },
    {
      "bufferView": 2,
      "byteOffset": 261600,
      "componentType": 5126,
      "count": 9562,
      "max": [
        15.360300064086914,
        15.385299682617188,
        -3.2867000102996826
      ],
      "min": [
        -16.44409942626953,
        -15.887299537658691,
        -92.60700225830078
      ],
      "type": "VEC3"
    },
    {
      "bufferView": 2,
      "byteOffset": 376344,
      "componentType": 5126,
      "count": 9562,
      "max": [
        1.0,
        1.0,
        1.0
      ],
      "min": [
        -1.0,
        -1.0,
        -1.0
      ],
      "type": "VEC3"
    },
    {
      "bufferView": 1,
      "byteOffset": 87200,
      "componentType": 5126,
      "count": 9562,
      "max": [
        7.703199863433838,
        7.718400001525879
      ],
      "min": [
        -7.703199863433838,
        -7.703199863433838
      ],
      "type": "VEC2"
    },
    {
      "bufferView": 0,
      "byteOffset": 193536,
      "componentType": 5125,
      "count": 51048,
      "type": "SCALAR"
    }
  ],
  "asset": {
    "extras": {
      "author": "VirtualBG (https://sketchfab.com/undereality)",
      "license": "CC-BY-4.0 (http://creativecommons.org/licenses/by/4.0/)",
      "source": "https://sketchfab.com/3d-models/jet-engine-for-3d-printing-dc5b6c0a6cad42cab67a1082a27011b2",
      "title": "Jet Engine for 3D printing"
    },
    "generator": "Sketchfab-12.66.0",
    "version": "2.0"
  },
  "bufferViews": [
    {
      "buffer": 0,
      "byteLength": 397728,
      "name": "floatBufferViews",
      "target": 34963
    },
    {
      "buffer": 0,
      "byteLength": 163696,
      "byteOffset": 397728,
      "byteStride": 8,
      "name": "floatBufferViews",
      "target": 34962
    },
    {
      "buffer": 0,
      "byteLength": 491088,
      "byteOffset": 561424,
      "byteStride": 12,
      "name": "floatBufferViews",
      "target": 34962
    }
  ],
  "buffers": [
    {
      "byteLength": 1052512,
      "uri": "scene.bin"
    }
  ],
  "materials": [
    {
      "doubleSided": true,
      "name": "Material",
      "pbrMetallicRoughness": {
        "metallicFactor": 0.2,
        "roughnessFactor": 0.2
      }
    }
  ],
  "meshes": [
    {
      "name": "Object_0",
      "primitives": [
        {
          "attributes": {
            "NORMAL": 1,
            "POSITION": 0,
            "TEXCOORD_0": 2
          },
          "indices": 3,
          "material": 0,
          "mode": 4
        }
      ]
    },
    {
      "name": "Object_1",
      "primitives": [
        {
          "attributes": {
            "NORMAL": 5,
            "POSITION": 4,
            "TEXCOORD_0": 6
          },
          "indices": 7,
          "material": 0,
          "mode": 4
        }
      ]
    },
    {
      "name": "Object_2",
      "primitives": [
        {
          "attributes": {
            "NORMAL": 9,
            "POSITION": 8,
            "TEXCOORD_0": 10
          },
          "indices": 11,
          "material": 0,
          "mode": 4
        }
      ]
    },
    {
      "name": "Object_3",
      "primitives": [
        {
          "attributes": {
            "NORMAL": 13,
            "POSITION": 12,
            "TEXCOORD_0": 14
          },
          "indices": 15,
          "material": 0,
          "mode": 4
        }
      ]
    },
    {
      "name": "Object_4",
      "primitives": [
        {
          "attributes": {
            "NORMAL": 17,
            "POSITION": 16,
            "TEXCOORD_0": 18
          },
          "indices": 19,
          "material": 0,
          "mode": 4
        }
      ]
    }
  ],
  "nodes": [
    {
      "children": [
        1
      ],
      "matrix": [
        1.0,
        0.0,
        0.0,
        0.0,
        0.0,
        -1.0,
        -2.220446049250313e-16,
        0.0,
        0.0,
        2.220446049250313e-16,
        -1.0,
        0.0,
        0.0,
        -41.25158691406249,
        -40.75034332275391,
        1.0
      ],
      "name": "Sketchfab_model"
    },
    {
      "children": [
        2,
        3,
        4,
        5,
        6
      ],
      "name": "model.obj.cleaner.gles"
    },
    {
      "mesh": 0,
      "name": "Object_2"
    },
    {
      "mesh": 1,
      "name": "Object_3"
    },
    {
      "mesh": 2,
      "name": "Object_4"
    },
    {
      "mesh": 3,
      "name": "Object_5"
    },
    {
      "mesh": 4,
      "name": "Object_6"
    }
  ],
  "scene": 0,
  "scenes": [
    {
      "name": "Sketchfab_Scene",
      "nodes": [
        0
      ]
    }
  ]
}
